<svg width="8" height="15" viewBox="0 0 8 15" fill="none" xmlns="http://www.w3.org/2000/svg">
<path d="M8 7.1002C8 7.3047 7.92638 7.48466 7.77096 7.64008L1.28425 13.9796C1.14519 14.1268 0.965235 14.2004 0.752556 14.2004C0.327198 14.2004 0 13.8814 0 13.456C0 13.2434 0.0899796 13.0634 0.220859 12.9243L6.17587 7.1002L0.220859 1.27607C0.0899796 1.13701 0 0.948875 0 0.744376C0 0.319018 0.327198 0 0.752556 0C0.965235 0 1.14519 0.0736196 1.28425 0.212679L7.77096 6.56033C7.92638 6.70757 8 6.89571 8 7.1002Z" fill="#131249"/>
</svg>
