<svg width="6" height="11" viewBox="0 0 6 11" fill="none" xmlns="http://www.w3.org/2000/svg">
<path d="M6 5.32515C6 5.47853 5.94479 5.6135 5.82822 5.73006L0.96319 10.4847C0.858896 10.5951 0.723926 10.6503 0.564417 10.6503C0.245399 10.6503 0 10.411 0 10.092C0 9.93252 0.0674847 9.79755 0.165644 9.69325L4.6319 5.32515L0.165644 0.957055C0.0674847 0.852761 0 0.711656 0 0.558282C0 0.239264 0.245399 0 0.564417 0C0.723926 0 0.858896 0.0552147 0.96319 0.159509L5.82822 4.92025C5.94479 5.03068 6 5.17178 6 5.32515Z" fill="#C84500"/>
</svg>
