<?xml version="1.0" encoding="UTF-8"?>
<svg xmlns="http://www.w3.org/2000/svg" xmlns:xlink="http://www.w3.org/1999/xlink" viewBox="0 0 50 50" width="50px" height="50px">
<g id="surface36190979">
<path style=" stroke:none;fill-rule:nonzero;fill:rgb(100%,100%,100%);fill-opacity:1;" d="M 25.007812 21.972656 L 25.007812 28.539062 L 34.363281 28.539062 C 33.140625 32.519531 29.816406 35.371094 25.007812 35.371094 C 19.28125 35.371094 14.636719 30.726562 14.636719 25 C 14.636719 19.273438 19.273438 14.628906 25.007812 14.628906 C 27.582031 14.628906 29.929688 15.578125 31.746094 17.132812 L 36.578125 12.292969 C 33.527344 9.507812 29.460938 7.8125 25.007812 7.8125 C 15.507812 7.8125 7.8125 15.507812 7.8125 25 C 7.8125 34.492188 15.507812 42.1875 25.007812 42.1875 C 39.433594 42.1875 42.621094 28.691406 41.203125 21.996094 Z M 25.007812 21.972656 "/>
</g>
</svg>
